<?xml version="1.0" encoding="utf-8"?>
<!-- Generator: Adobe Illustrator 16.0.0, SVG Export Plug-In . SVG Version: 6.00 Build 0)  -->
<!DOCTYPE svg PUBLIC "-//W3C//DTD SVG 1.1//EN" "http://www.w3.org/Graphics/SVG/1.1/DTD/svg11.dtd">
<svg version="1.1" id="图层_1" xmlns="http://www.w3.org/2000/svg" xmlns:xlink="http://www.w3.org/1999/xlink" x="0px" y="0px"
	 width="200px" height="200px" viewBox="0 0 200 200" enable-background="new 0 0 200 200" xml:space="preserve">
<g>
	<g>
		<g>
			<g>
				<path fill="#FFFFFF" d="M118.343,24.113c-0.574,3.672-3.375,5.103-6.827,4.562c-3.843-0.603-6.032-2.762-5.629-5.326
					l1.689-10.795c0.311-1.972-1.962-1.343-1.854-2.033c0.029-0.197,0.148-0.304,0.543-0.242c1.258,0.197,2.433,0.431,3.418,0.584
					c0.986,0.155,2.177,0.291,3.435,0.488c0.395,0.062,0.474,0.2,0.442,0.398c-0.108,0.689-2.075-0.604-2.386,1.368l-1.689,10.796
					c-0.315,2.021,1.112,3.861,3.157,4.181c2.591,0.405,4.625-0.993,5.085-3.926l1.168-7.469c0.332-2.12-0.268-3.451-1.342-3.998
					c-0.35-0.182-0.717-0.264-0.681-0.486c0.022-0.148,0.092-0.264,0.388-0.217c0.641,0.101,1.594,0.3,2.604,0.458
					c1.01,0.158,1.978,0.258,2.62,0.359c0.296,0.046,0.325,0.177,0.303,0.325c-0.034,0.222-0.408,0.189-0.797,0.255
					c-1.192,0.192-2.169,1.276-2.502,3.396L118.343,24.113z"/>
			</g>
		</g>
		<g>
			<g>
				<path fill="#FFFFFF" d="M125.771,27.738c-0.809,1.826-0.41,2.902,0.145,3.5c0.517,0.556,1.211,0.59,1.042,0.978
					c-0.061,0.138-0.158,0.231-0.431,0.11c-0.777-0.344-1.646-0.782-2.582-1.195c-0.938-0.414-1.847-0.761-2.624-1.104
					c-0.273-0.121-0.269-0.255-0.206-0.391c0.17-0.388,0.663,0.102,1.423,0.11c0.816,0.004,1.877-0.425,2.686-2.25l4.404-9.974
					c-0.269-1.428-0.775-2.006-1.466-2.421c-0.345-0.206-0.503-0.277-0.393-0.528c0.081-0.182,0.201-0.21,0.386-0.129
					c0.775,0.343,1.6,0.762,2.444,1.135l2.555,1.129l3.633,13.879l0.045,0.021l2.986-6.756c0.807-1.826,0.408-2.902-0.145-3.5
					c-0.519-0.556-1.213-0.589-1.042-0.978c0.06-0.137,0.158-0.231,0.431-0.109c0.774,0.343,1.645,0.781,2.58,1.195
					c0.938,0.413,1.849,0.761,2.623,1.103c0.274,0.121,0.271,0.255,0.207,0.392c-0.169,0.387-0.663-0.102-1.421-0.111
					c-0.818-0.005-1.88,0.425-2.686,2.251l-5.195,11.754c-0.191,0.433-0.353,0.743-0.535,0.663c-0.205-0.092-0.245-0.436-0.329-0.8
					l-4.395-17.216l-0.047-0.021L125.771,27.738z"/>
			</g>
		</g>
		<g>
			<g>
				<path fill="#FFFFFF" d="M149.446,27.686c1.161-1.624-1.148-2.08-0.742-2.648c0.115-0.162,0.271-0.205,0.595,0.026
					c1.033,0.74,1.979,1.479,2.79,2.059c0.813,0.582,1.815,1.237,2.85,1.978c0.325,0.232,0.334,0.392,0.217,0.554
					c-0.406,0.568-1.585-1.471-2.746,0.151l-7.521,10.51c-1.161,1.623,1.15,2.08,0.744,2.647c-0.117,0.163-0.271,0.207-0.596-0.026
					c-1.034-0.741-1.979-1.478-2.791-2.058c-0.812-0.582-1.815-1.238-2.849-1.978c-0.324-0.233-0.334-0.392-0.218-0.554
					c0.407-0.569,1.585,1.472,2.746-0.151L149.446,27.686z"/>
			</g>
		</g>
		<g>
			<g>
				<path fill="#FFFFFF" d="M165.19,44.843c0.5-0.197,1.02-0.52,1.42-0.896c1.737-1.648-0.155-2.811,0.298-3.239
					c0.091-0.085,0.302-0.08,0.491,0.119c0.584,0.616,1.116,1.248,1.696,1.864c0.568,0.597,1.17,1.16,1.754,1.776
					c0.343,0.363,0.475,0.648,0.313,0.803c-0.525,0.498-1.104-1.601-4.726-0.197l-13.286,5.13c-0.303,0.115-0.589,0.213-0.688,0.105
					c-0.104-0.109,0.01-0.388,0.14-0.685l6.442-14.387c0.921-2.077-0.51-2.679-0.148-3.021c0.091-0.087,0.267-0.081,0.422,0.081
					c0.875,0.923,1.61,1.773,2.401,2.606c0.771,0.814,1.597,1.614,2.37,2.429c0.309,0.326,0.338,0.504,0.212,0.624
					c-0.381,0.361-1.111-1.354-2.07-0.444c-0.253,0.241-0.421,0.536-0.532,0.78l-4.568,9.689L165.19,44.843z"/>
			</g>
		</g>
		<g>
			<g>
				<path fill="#FFFFFF" d="M172.382,50.381c1.715-1.022-0.222-2.366,0.378-2.725c0.172-0.102,0.33-0.081,0.534,0.262
					c0.652,1.093,1.223,2.147,1.736,3.004c1.584,2.656,3.115,5.172,4.646,7.686l-3.452,3.514c-0.271,0.277-0.415,0.422-0.48,0.46
					c-0.107,0.064-0.207,0.038-0.298-0.112c-0.115-0.192,0.262-0.388,1.157-2.056c1.068-2.003,1.116-3.921-0.42-6.491l-0.691-1.158
					l-6.17,3.683l0.32,0.537c0.897,1.5,2.663,1.926,4.255,1.092c0.441-0.235,0.587-0.234,0.715-0.021
					c0.077,0.129,0.021,0.279-0.171,0.394l-6.556,3.914c-0.193,0.115-0.35,0.093-0.427-0.036c-0.13-0.213-0.059-0.342,0.354-0.619
					c1.856-1.224,2.21-2.917,1.315-4.417l-0.32-0.535l-5.396,3.222c-0.985,0.588-1.27,1.281-0.453,2.653
					c1.997,3.341,5.447,3.721,7.965,3.119c0.484-0.115,0.689-0.208,0.805-0.015c0.09,0.15,0.021,0.278-0.108,0.355
					c-0.127,0.077-0.41,0.187-0.672,0.284l-5.319,1.896c-1.665-2.84-3.345-5.702-5.123-8.679c-0.511-0.858-1.167-1.859-1.82-2.952
					c-0.205-0.343-0.148-0.493,0.022-0.595c0.6-0.358,0.864,1.983,2.579,0.959L172.382,50.381z"/>
			</g>
		</g>
		<g>
			<g>
				<path fill="#FFFFFF" d="M176.016,78.586c1.026-0.928,1.102-2.171,0.692-3.56l-5.743,1.693c-1.916,0.564-0.374,2.348-1.044,2.544
					c-0.194,0.057-0.341-0.003-0.455-0.387c-0.358-1.221-0.649-2.384-0.932-3.34c-0.282-0.957-0.67-2.092-1.03-3.312
					c-0.112-0.384-0.021-0.514,0.171-0.571c0.67-0.197,0.343,2.136,2.258,1.572l12.396-3.656c1.916-0.565,0.376-2.347,1.046-2.545
					c0.192-0.056,0.339,0.004,0.453,0.388c0.359,1.22,0.651,2.382,0.932,3.34c0.354,1.197,0.705,2.212,1.172,3.792
					c1.205,4.092,0.029,6.806-2.412,7.526c-2.01,0.592-4.052-0.159-6.032-4.933l-0.048,0.015c0.756,2.561,0.542,4.132-0.978,5.595
					l-2.94,2.818c-1.602,1.538-0.227,2.85-0.896,3.048c-0.145,0.042-0.271,0.053-0.334-0.163c-0.255-0.861-0.46-1.736-0.715-2.599
					l-0.762-2.584L176.016,78.586z M177.139,74.899l0.277,0.934c0.796,2.704,2.488,3.505,5.024,2.758
					c2.632-0.777,3.354-2.393,2.753-4.428l-0.444-1.508L177.139,74.899z"/>
			</g>
		</g>
		<g>
			<g>
				<path fill="#FFFFFF" d="M179.281,89.891c0.298-0.015,0.377,0.083,0.386,0.232c0.011,0.248-0.361,0.267-0.882,0.392
					c-3.135,0.752-6.239,2.15-6.063,5.788c0.122,2.543,1.49,3.925,3.407,3.833c5.033-0.245,2.084-10.093,8.265-10.392
					c2.94-0.144,5.254,2.243,5.403,5.333c0.114,2.343-0.823,3.637-0.788,4.334c0.041,0.874,0.722,0.466,0.742,0.913
					c0.009,0.176-0.063,0.279-0.435,0.322l-4.687,0.676c-0.473,0.072-0.694,0.109-0.82,0.117c-0.174,0.006-0.251-0.064-0.258-0.189
					c-0.013-0.248,0.51-0.301,1.488-0.748c2.713-1.23,4.292-2.654,4.158-5.419c-0.087-1.771-0.926-3.128-2.818-3.035
					c-4.088,0.197-1.332,10.205-8.082,10.533c-3.316,0.16-5.991-2.51-6.174-6.271c-0.121-2.467,0.97-3.695,0.923-4.667
					c-0.048-0.971-0.887-0.78-0.907-1.205c-0.006-0.124,0.039-0.201,0.215-0.209L179.281,89.891z"/>
			</g>
		</g>
		<g>
			<g>
				<path fill="#FFFFFF" d="M186.989,109.811c1.978,0.266,1.301-1.992,1.991-1.898c0.2,0.025,0.311,0.143,0.255,0.537
					c-0.167,1.264-0.377,2.443-0.511,3.432c-0.132,0.99-0.24,2.184-0.412,3.443c-0.054,0.396-0.189,0.479-0.386,0.451
					c-0.692-0.092,0.558-2.088-1.421-2.354l-12.81-1.723c-1.978-0.266-1.299,1.992-1.991,1.898
					c-0.198-0.025-0.308-0.143-0.255-0.537c0.169-1.262,0.378-2.443,0.512-3.432c0.133-0.988,0.243-2.182,0.412-3.441
					c0.053-0.396,0.189-0.48,0.388-0.455c0.692,0.094-0.559,2.092,1.421,2.357L186.989,109.811z"/>
			</g>
		</g>
		<g>
			<g>
				<path fill="#FFFFFF" d="M184.892,126.48c0.296-5.109-3.266-6.57-3.083-7.115c0.039-0.119,0.143-0.189,0.31-0.133
					c0.093,0.031,0.458,0.205,0.812,0.404l4.063,2.236c0.332,0.189,0.401,0.293,0.363,0.41c-0.041,0.119-0.143,0.189-0.275,0.277
					c-0.112,0.094-0.311,0.211-0.422,0.541l-3.563,10.596c-0.11,0.33-0.022,0.545,0.009,0.688c0.055,0.148,0.091,0.268,0.053,0.387
					c-0.039,0.117-0.158,0.158-0.535,0.107l-4.591-0.674c-0.403-0.057-0.796-0.137-0.891-0.168
					c-0.167-0.055-0.205-0.174-0.165-0.293c0.183-0.543,3.905,0.445,6.756-3.809l-13.102-4.404c-1.515-0.51-2.092,0.113-2.48,1.271
					c-0.095,0.283-0.216,0.402-0.453,0.322c-0.188-0.064-0.221-0.205-0.131-0.465c0.453-1.348,0.904-2.539,1.277-3.65
					c0.376-1.113,0.732-2.334,1.188-3.682c0.088-0.262,0.198-0.354,0.386-0.291c0.237,0.08,0.26,0.244,0.165,0.529
					c-0.389,1.158-0.307,2.002,1.209,2.512L184.892,126.48z"/>
			</g>
		</g>
		<g>
			<g>
				<path fill="#FFFFFF" d="M168.07,143.969l1.894,3.473c0.631,1.158,1.452,1.963,2.024,2.318c1.417,0.887,2.023-0.561,2.363-0.348
					c0.129,0.078,0.154,0.271-0.029,0.568c-0.424,0.68-0.784,1.158-1.31,2.006c-0.41,0.656-0.791,1.359-1.185,1.996
					c-0.094,0.148-0.233,0.18-0.357,0.1c-0.424-0.262,0.769-0.9-1.345-5.012l-2.613-5.098l-5.103-3.182
					c-1.693-1.055-2.003,1.281-2.596,0.912c-0.169-0.107-0.222-0.256-0.012-0.596c0.673-1.08,1.349-2.07,1.877-2.918
					c0.527-0.848,1.118-1.891,1.792-2.969c0.212-0.338,0.37-0.357,0.539-0.252c0.593,0.369-1.368,1.674,0.327,2.732l4.699,2.93
					l8.327,0.457c2.239,0.133,2.431-1.396,2.875-1.119c0.147,0.092,0.153,0.273,0.008,0.506c-0.647,1.037-1.295,1.984-1.915,2.98
					c-0.622,0.994-1.187,1.994-1.807,2.99c-0.2,0.316-0.354,0.426-0.502,0.334c-0.444-0.277,0.896-1.295-0.291-2.035
					c-0.359-0.225-0.776-0.307-1.423-0.357L168.07,143.969z"/>
			</g>
		</g>
	</g>
	<g>
		<g>
			<g>
				<path fill="#FFFFFF" d="M37.171,149.189c-0.249,0.166-0.367,0.125-0.451,0c-0.138-0.207,0.174-0.414,0.553-0.789
					c2.303-2.258,4.246-5.055,2.223-8.084c-1.414-2.115-3.295-2.598-4.895-1.531c-4.191,2.799,3.405,9.725-1.74,13.162
					c-2.448,1.635-5.661,0.779-7.378-1.793c-1.302-1.951-1.165-3.543-1.554-4.123c-0.484-0.727-0.858-0.027-1.107-0.4
					c-0.097-0.145-0.09-0.27,0.208-0.5l3.67-2.99c0.367-0.307,0.541-0.451,0.644-0.52c0.145-0.098,0.248-0.076,0.317,0.027
					c0.139,0.207-0.283,0.52-0.892,1.404c-1.693,2.451-2.315,4.486-0.777,6.789c0.984,1.473,2.404,2.205,3.979,1.154
					c3.403-2.273-4.109-9.438,1.513-13.191c2.759-1.844,6.428-0.932,8.519,2.201c1.372,2.053,1.068,3.666,1.609,4.475
					c0.541,0.811,1.163,0.213,1.399,0.566c0.069,0.104,0.069,0.193-0.076,0.291L37.171,149.189z"/>
			</g>
		</g>
		<g>
			<g>
				<path fill="#FFFFFF" d="M19.324,134.43c-1.893,0.637-0.286,2.361-0.948,2.584c-0.189,0.064-0.339,0.01-0.467-0.369
					c-0.406-1.207-0.741-2.357-1.058-3.303c-0.317-0.947-0.748-2.066-1.154-3.271c-0.127-0.379-0.042-0.514,0.148-0.576
					c0.662-0.223,0.424,2.121,2.315,1.484l5.439-1.83l-2.084-6.195l-5.44,1.83c-1.892,0.637-0.283,2.361-0.947,2.584
					c-0.19,0.064-0.34,0.008-0.465-0.371c-0.407-1.205-0.741-2.355-1.06-3.303c-0.318-0.945-0.748-2.064-1.154-3.27
					c-0.128-0.379-0.04-0.512,0.148-0.576c0.663-0.223,0.425,2.121,2.317,1.484l12.249-4.121c1.892-0.639,0.284-2.359,0.947-2.582
					c0.188-0.064,0.339-0.01,0.467,0.369c0.405,1.205,0.741,2.355,1.057,3.301c0.318,0.947,0.748,2.066,1.155,3.271
					c0.127,0.379,0.042,0.514-0.148,0.578c-0.664,0.221-0.424-2.123-2.317-1.486l-6.243,2.102l2.083,6.193l6.244-2.1
					c1.892-0.637,0.284-2.359,0.947-2.584c0.188-0.063,0.338-0.008,0.465,0.371c0.406,1.205,0.741,2.355,1.06,3.303
					c0.317,0.945,0.748,2.064,1.152,3.271c0.127,0.377,0.041,0.512-0.148,0.574c-0.661,0.225-0.424-2.119-2.315-1.484L19.324,134.43
					z"/>
			</g>
		</g>
		<g>
			<g>
				<path fill="#FFFFFF" d="M12.945,109.822c-1.995,0.096-0.918,2.191-1.616,2.227c-0.2,0.008-0.329-0.084-0.348-0.484
					c-0.062-1.268-0.071-2.469-0.12-3.465c-0.152-3.092-0.318-6.031-0.488-8.97l4.699-1.479c0.369-0.118,0.565-0.178,0.642-0.181
					c0.124-0.007,0.202,0.064,0.209,0.239c0.013,0.224-0.414,0.22-1.986,1.271c-1.886,1.266-2.828,2.934-2.684,5.926l0.067,1.348
					l7.176-0.352l-0.031-0.623c-0.084-1.744-1.444-2.953-3.242-2.965c-0.499-0.002-0.627-0.07-0.641-0.318
					c-0.008-0.148,0.114-0.254,0.338-0.266l7.625-0.373c0.224-0.012,0.353,0.084,0.36,0.232c0.014,0.25-0.109,0.33-0.605,0.379
					c-2.214,0.209-3.324,1.537-3.236,3.283l0.028,0.621l6.28-0.307c1.146-0.057,1.723-0.533,1.645-2.127
					c-0.191-3.889-3.059-5.847-5.564-6.5c-0.481-0.125-0.707-0.14-0.717-0.363c-0.009-0.174,0.112-0.255,0.262-0.264
					c0.15-0.007,0.452,0.029,0.727,0.065l5.586,0.827c0.136,3.29,0.272,6.606,0.441,10.071c0.048,0.996,0.157,2.189,0.219,3.461
					c0.021,0.398-0.1,0.504-0.3,0.516c-0.698,0.033,0.168-2.156-1.824-2.061L12.945,109.822z"/>
			</g>
		</g>
		<g>
			<g>
				<path fill="#FFFFFF" d="M24.21,89.081c1.95,0.429,2.924-0.176,3.401-0.838c0.441-0.617,0.336-1.304,0.752-1.214
					c0.146,0.031,0.256,0.107,0.193,0.399c-0.181,0.828-0.439,1.769-0.658,2.769c-0.219,0.999-0.377,1.96-0.56,2.788
					c-0.064,0.293-0.197,0.315-0.344,0.282c-0.415-0.091-0.03-0.671-0.173-1.416c-0.158-0.801-0.791-1.757-2.74-2.186l-10.649-2.333
					c-1.346,0.548-1.814,1.16-2.08,1.919c-0.134,0.379-0.172,0.551-0.439,0.49c-0.197-0.042-0.248-0.155-0.205-0.351
					c0.181-0.828,0.429-1.719,0.625-2.622l0.601-2.729l12.877-6.321l0.01-0.048L17.61,76.09c-1.95-0.428-2.925,0.176-3.402,0.838
					c-0.442,0.617-0.337,1.304-0.751,1.213c-0.146-0.033-0.258-0.108-0.195-0.4c0.183-0.829,0.439-1.769,0.658-2.768
					s0.379-1.96,0.56-2.787c0.065-0.293,0.196-0.315,0.344-0.283c0.414,0.09,0.031,0.671,0.174,1.417
					c0.157,0.801,0.789,1.757,2.739,2.184l12.549,2.751c0.463,0.101,0.799,0.201,0.756,0.395c-0.049,0.22-0.378,0.326-0.718,0.481
					l-15.998,7.73l-0.011,0.05L24.21,89.081z"/>
			</g>
		</g>
		<g>
			<g>
				<path fill="#FFFFFF" d="M33.502,69.676c1.208-2.574,0.753-4.717-0.192-6.345c-0.956-1.662-2.322-2.275-2.141-2.66
					c0.041-0.09,0.162-0.172,0.343-0.086c0.136,0.064,0.442,0.291,0.83,0.582l4.331,3.163c-0.87,1.796-1.762,3.638-2.632,5.489
					c-0.867,1.852-1.693,3.725-2.561,5.578c-0.087,0.181-0.241,0.218-0.331,0.175c-0.115-0.053-0.23-0.218-0.425-0.503
					l-10.163-15.05l-0.636,1.356c-1.177,2.507-1.002,4.545,0.25,6.456c1.124,1.713,1.481,1.66,1.343,1.952
					c-0.063,0.136-0.153,0.149-0.265,0.097c-0.067-0.032-0.228-0.163-0.523-0.411l-3.785-3.154c0.763-1.627,1.582-3.254,2.367-4.925
					c0.785-1.671,1.513-3.342,2.319-5.058c0.137-0.293,0.238-0.33,0.349-0.276c0.114,0.052,0.288,0.327,0.519,0.656l10.135,14.816
					L33.502,69.676z"/>
			</g>
		</g>
		<g>
			<g>
				<path fill="#FFFFFF" d="M27.437,50.721c-1.556-1.249-2.14,1.035-2.686,0.597c-0.155-0.125-0.189-0.281,0.06-0.593
					c0.796-0.993,1.583-1.896,2.208-2.673c0.624-0.778,1.335-1.745,2.131-2.737c0.25-0.311,0.41-0.311,0.565-0.186
					c0.544,0.438-1.557,1.503,0,2.751l4.477,3.59l4.09-5.1l-4.477-3.59c-1.558-1.249-2.141,1.034-2.684,0.596
					c-0.157-0.124-0.192-0.28,0.058-0.592c0.795-0.993,1.584-1.895,2.208-2.674c0.624-0.778,1.336-1.744,2.131-2.737
					c0.25-0.311,0.408-0.311,0.566-0.186c0.544,0.438-1.556,1.502,0,2.751l10.082,8.084c1.558,1.249,2.141-1.034,2.686-0.597
					c0.158,0.125,0.191,0.281-0.058,0.592c-0.796,0.992-1.585,1.895-2.208,2.674c-0.625,0.779-1.336,1.744-2.131,2.736
					c-0.25,0.311-0.411,0.311-0.566,0.185c-0.546-0.436,1.557-1.502-0.001-2.75l-5.139-4.12l-4.089,5.1l5.139,4.12
					c1.557,1.249,2.141-1.033,2.686-0.597c0.155,0.125,0.191,0.281-0.059,0.592c-0.795,0.992-1.585,1.895-2.208,2.674
					c-0.625,0.777-1.335,1.744-2.131,2.736c-0.249,0.313-0.41,0.313-0.565,0.187c-0.546-0.438,1.556-1.502-0.001-2.751
					L27.437,50.721z"/>
			</g>
		</g>
		<g>
			<g>
				<path fill="#FFFFFF" d="M44.678,32.065c-1.163-1.623-2.341,0.416-2.748-0.152c-0.115-0.163-0.108-0.322,0.217-0.554
					c1.035-0.74,2.038-1.396,2.848-1.977c2.518-1.8,4.898-3.533,7.276-5.266l3.788,3.15c0.299,0.246,0.456,0.379,0.5,0.441
					c0.072,0.102,0.056,0.205-0.088,0.307c-0.183,0.131-0.409-0.229-2.146-0.981c-2.084-0.901-4-0.789-6.434,0.953l-1.097,0.784
					l4.182,5.843l0.507-0.363c1.421-1.016,1.7-2.811,0.737-4.33c-0.27-0.42-0.282-0.565-0.079-0.711
					c0.121-0.087,0.276-0.043,0.407,0.139l4.44,6.21c0.13,0.183,0.123,0.342,0,0.429c-0.202,0.145-0.336,0.088-0.646-0.304
					c-1.373-1.748-3.09-1.961-4.511-0.946L51.326,35.1l3.658,5.113c0.667,0.935,1.38,1.159,2.679,0.231
					c3.166-2.265,3.259-5.736,2.451-8.195c-0.155-0.473-0.265-0.67-0.083-0.801c0.142-0.102,0.276-0.043,0.363,0.078
					c0.089,0.122,0.221,0.395,0.34,0.647l2.331,5.144c-2.694,1.895-5.407,3.805-8.227,5.824c-0.811,0.581-1.757,1.318-2.792,2.058
					c-0.324,0.232-0.479,0.189-0.594,0.027c-0.407-0.569,1.905-1.025,0.744-2.648L44.678,32.065z"/>
			</g>
		</g>
		<g>
			<g>
				<path fill="#FFFFFF" d="M67.771,30.528c0.706,1.867,1.743,2.356,2.558,2.395c0.759,0.034,1.277-0.429,1.428-0.032
					c0.052,0.141,0.05,0.275-0.231,0.381c-0.792,0.299-1.721,0.596-2.679,0.957c-0.956,0.36-1.85,0.751-2.644,1.05
					c-0.278,0.106-0.371,0.006-0.423-0.134c-0.148-0.396,0.546-0.392,1.094-0.918c0.585-0.568,1.042-1.62,0.337-3.487l-3.848-10.201
					c-1.192-0.83-1.96-0.886-2.742-0.699c-0.39,0.094-0.555,0.156-0.65-0.102c-0.07-0.186-0.003-0.292,0.183-0.362
					c0.793-0.299,1.675-0.579,2.539-0.904l2.615-0.986l12.318,7.352l0.049-0.018l-2.608-6.909c-0.704-1.868-1.742-2.355-2.556-2.395
					c-0.76-0.034-1.278,0.428-1.428,0.031c-0.053-0.139-0.05-0.274,0.231-0.38c0.794-0.3,1.721-0.596,2.679-0.958
					c0.958-0.361,1.851-0.751,2.642-1.051c0.281-0.105,0.372-0.006,0.424,0.134c0.15,0.396-0.544,0.392-1.092,0.919
					c-0.585,0.568-1.042,1.62-0.337,3.487l4.534,12.021c0.169,0.444,0.269,0.779,0.081,0.85c-0.209,0.078-0.479-0.141-0.793-0.34
					l-15.203-9.198l-0.046,0.019L67.771,30.528z"/>
			</g>
		</g>
	</g>
	<g>
		<g>
			<circle fill="#FFFFFF" cx="55.461" cy="169.009" r="2.339"/>
		</g>
	</g>
	<g>
		<g>
			<circle fill="#FFFFFF" cx="144.343" cy="169.008" r="2.338"/>
		</g>
	</g>
	<g>
		<g>
			<g>
				<path fill="#FFFFFF" d="M73.699,182.889c-0.332,0.994,0.109,1.719,1.434,2.242c1.254,0.498,1.515,0.586,1.395,0.941
					c-0.048,0.141-0.213,0.242-0.474,0.156c-1.608-0.539-3.233-1.109-4.756-1.594c-1.616-0.516-3.256-1.039-4.865-1.576
					c-0.26-0.088-0.331-0.27-0.284-0.412c0.119-0.354,0.381-0.268,1.681,0.09c1.373,0.381,2.162,0.066,2.495-0.928l3.701-11.047
					c0.183-0.543,0.08-0.709-0.346-0.852l-3.218-1.08c-0.211-0.07-0.3-0.205-0.244-0.371c0.119-0.354,0.537-0.029,2.658,0.391
					c3.18,0.645,4.727-0.205,5.201-0.047c0.211,0.07,0.267,0.221,0.131,0.623L73.699,182.889z"/>
			</g>
		</g>
		<g>
			<g>
				<path fill="#FFFFFF" d="M91.116,171.441c4.096,0.438,6.233,3.879,5.791,8.021c-0.767,7.17-10.113,8.93-11.229,8.811
					c-0.124-0.016-0.141-0.092-0.128-0.215c0.033-0.299,5.283-1.066,7.328-7.045c-1.034,0.518-2.096,0.83-3.435,0.688
					c-4.043-0.434-5.53-3.201-5.264-5.684C84.497,173.041,86.925,170.992,91.116,171.441z M90.2,181.178
					c1.191,0.129,2.592-0.525,2.922-1.041c0.121-0.188,0.375-1.164,0.484-2.182c0.481-4.49-0.799-5.883-2.635-6.08
					c-1.414-0.15-2.944,0.539-3.352,4.359C87.254,179.633,88.587,181.006,90.2,181.178z"/>
			</g>
		</g>
		<g>
			<g>
				<path fill="#FFFFFF" d="M104.264,180.412c-1.561-0.969-2.267-2.184-2.379-3.475c-0.23-2.686,2.169-5.047,5.624-5.344
					c2.86-0.248,5.149,1.307,5.335,3.471c0.128,1.467-0.551,2.902-1.672,3.826c1.944,0.482,3.191,2.178,3.374,4.291
					c0.246,2.857-2.39,5.389-6.467,5.74c-3.503,0.303-5.996-1.586-6.217-4.145C101.738,183.359,102.488,181.592,104.264,180.412z
					 M108.04,188.475c2.485-0.213,3.643-1.891,3.479-3.781c-0.115-1.342-0.757-2.387-3.5-3.127c-2.59-0.703-2.809-0.91-3.156-0.881
					c-0.447,0.039-1.578,1.439-1.394,3.576C103.701,186.947,105.356,188.707,108.04,188.475z M107.573,172.037
					c-1.74,0.152-2.836,1.398-2.683,3.164c0.219,2.533,4.074,3.102,5.864,3.523c0.541-0.697,0.927-1.432,0.781-3.121
					C111.316,173.043,109.761,171.85,107.573,172.037z"/>
			</g>
		</g>
		<g>
			<g>
				<path fill="#FFFFFF" d="M127.396,174.232c1.834,0.605,3.362,1.564,3.965,3.494c1.003,3.215-1.319,6.658-4.797,7.742
					c-3.382,1.057-6.063,0.168-6.591-1.523c-0.289-0.928,0.108-1.994,1.085-2.299c1.215-0.379,1.962,0.172,2.516,1.777
					c0.568,1.652,1.665,1.988,2.809,1.633c1.93-0.604,2.89-2.471,2.116-4.945c-0.626-2.002-2.159-3.064-3.761-3.088
					c-1.049-0.012-1.943,0.557-2.055,0.197c-0.164-0.523,0.928-0.289,1.926-1.281c0.677-0.68,0.794-1.895,0.386-3.203
					c-0.552-1.762-2.054-2.391-3.982-1.789c-2.548,0.797-2.216,2.783-2.669,2.924c-0.118,0.037-0.22-0.035-0.258-0.156
					c-0.193-0.617,0.558-3.91,3.845-4.936c2.356-0.736,5.09-0.1,5.893,2.473C128.166,172.346,127.938,173.203,127.396,174.232z"/>
			</g>
		</g>
	</g>
	<g>
		<g>
			<path fill="#FFFFFF" d="M99.997,200c-13.498,0-26.594-2.645-38.924-7.859c-11.908-5.037-22.602-12.248-31.785-21.43
				c-9.185-9.184-16.395-19.877-21.432-31.787c-5.214-12.328-7.858-25.426-7.858-38.926c0-13.499,2.644-26.594,7.858-38.924
				c5.037-11.908,12.248-22.602,21.432-31.785c9.183-9.184,19.876-16.394,31.785-21.43c12.329-5.215,25.426-7.86,38.924-7.86
				c13.5,0,26.597,2.645,38.927,7.86c11.907,5.037,22.602,12.248,31.786,21.43c9.183,9.184,16.392,19.877,21.429,31.785
				c5.216,12.33,7.859,25.425,7.859,38.924c0,13.5-2.644,26.596-7.859,38.926c-5.037,11.91-12.246,22.604-21.429,31.787
				c-9.185,9.182-19.879,16.393-31.786,21.43C126.594,197.355,113.497,200,99.997,200L99.997,200z M99.997,3.508
				c-53.204,0-96.49,43.286-96.49,96.49c0,53.207,43.286,96.492,96.49,96.492c53.206,0,96.492-43.285,96.492-96.492
				C196.489,46.794,153.203,3.508,99.997,3.508L99.997,3.508z"/>
		</g>
	</g>
	<g>
		<g>
			<g>
				<path fill="#FFFFFF" d="M129.146,74.792c0.851-0.24,0.717-1.766,0.301-3.27c-0.258-0.942-3.029-0.369-3.029-0.369
					s-0.135,0.498-0.164,1.073C126.137,74.543,129.155,74.712,129.146,74.792z"/>
			</g>
		</g>
		<g>
			<g>
				<path fill="#FFFFFF" d="M82.844,108.508c0.14,0.059,0.367,0.168,0.711,0.16c0.723-0.018,1.118-0.482,1.3-0.564
					c0.072-0.031,0.272-0.148,0.271-0.191c-0.016-0.301-1.047-0.689-1.57-0.715c-0.627-0.029-1.621,0.533-1.621,0.686
					C81.933,108.072,82.64,108.418,82.844,108.508z"/>
			</g>
		</g>
		<g>
			<g>
				<path fill="#FFFFFF" d="M89.185,120.379c0.854-1.52-4.477-1.307-6.465-1.307c-1.986,0-7.071,0.049-6.547,1.232
					c0.346,0.781,3.892,0.453,6.887,0.453C86.056,120.758,88.758,121.139,89.185,120.379z"/>
			</g>
		</g>
		<g>
			<g>
				<path fill="#FFFFFF" d="M116.136,74.922c1.195,0.227,2.243-1.059,2.591-2.749c0.102-0.503-0.474-1.406-1.621-1.406
					c-0.897,0-1.68,0.395-1.867,1.189C115.058,72.71,115.099,74.726,116.136,74.922z"/>
			</g>
		</g>
		<g>
			<g>
				<path fill="#FFFFFF" d="M142.1,73.613c0,1.338,0.562,2.543,1.461,3.396l0.031,0.037l15.842,15.844l0.002,0.003
					c0.85,0.848,1.376,2.021,1.376,3.314V76.386c0-0.929-0.537-2.226-1.193-2.882l-33.236-33.237
					c-0.658-0.657-1.954-1.194-2.882-1.194h-2.467v0.001c-0.641,0.008-1.156,0.529-1.156,1.168v15.789
					c0,0.967-0.782,1.75-1.748,1.754h-1.759v-9.357v-1.17V42.58c0-1.938-1.569-3.509-3.509-3.509h-3.509H90.641h-3.51
					c-1.938,0-3.51,1.571-3.51,3.509v3.509v2.338v1.169v3.509v1.169v3.51h-1.758c-0.967-0.004-1.748-0.788-1.748-1.754V40.242
					c0-0.645-0.524-1.169-1.17-1.169l0,0h-2.45c-0.929,0-2.226,0.537-2.883,1.194L40.376,73.503
					c-0.656,0.656-1.195,1.954-1.195,2.882v19.821c0-1.294,0.525-2.467,1.377-3.314l0.001-0.003l15.842-15.844l0.031-0.037
					c0.899-0.852,1.459-2.058,1.459-3.396v1.934v1.37c0,1.294-0.527,2.467-1.376,3.313l-0.002,0.004L40.673,96.078l-0.031,0.037
					c-0.9,0.853-1.461,2.058-1.461,3.395v17.938c0-1.295,0.525-2.467,1.377-3.314l0.001-0.002l15.842-15.845l0.031-0.038
					c0.899-0.854,1.459-2.057,1.459-3.395v1.933v1.37c0,1.294-0.527,2.465-1.376,3.313l-0.002,0.004l-15.842,15.846l-0.031,0.037
					c-0.9,0.852-1.461,2.059-1.461,3.395v2.639c0,0.928,0.538,2.225,1.195,2.881l4.64,4.643l11.386-11.387l0.031-0.035
					c0.899-0.854,1.459-2.059,1.459-3.396v1.934v1.369c0,1.295-0.527,2.467-1.376,3.314l-0.002,0.004l-9.848,9.848l26.667,26.668
					l7.214-12.977c0.617-1.146,1.829-1.926,3.221-1.926h1.106h1.68c-1.418,0-2.649,0.809-3.255,1.988l-0.001-0.002l-7.893,14.199
					c0.379,0.117,0.756,0.188,1.087,0.188h13.686l2.613-14.428c0.197-1.105,1.161-1.945,2.322-1.945h0.034h0.389h1.97
					c-1.168,0-2.138,0.85-2.326,1.965l-2.61,14.408h14.847l-2.609-14.408c-0.188-1.115-1.159-1.965-2.326-1.965h1.97h0.387h0.035
					c1.161,0,2.125,0.84,2.321,1.945l2.613,14.428H123.5c0.33,0,0.708-0.07,1.087-0.188l-7.893-14.199l-0.002,0.002
					c-0.606-1.18-1.838-1.988-3.256-1.988h1.683h1.103c1.394,0,2.604,0.779,3.224,1.926l7.214,12.977l26.667-26.668l-9.849-9.848
					l-0.001-0.004c-0.85-0.848-1.377-2.02-1.377-3.314v-1.369v-1.934c0,1.338,0.562,2.543,1.461,3.396l0.029,0.035l11.386,11.387
					l4.641-4.643c0.656-0.656,1.195-1.953,1.195-2.881v-2.639c0-1.336-0.562-2.543-1.46-3.395l-0.031-0.037l-15.843-15.846
					l-0.001-0.004c-0.85-0.848-1.377-2.019-1.377-3.314v-1.369v-1.933c0,1.338,0.562,2.541,1.461,3.395l0.029,0.038l15.843,15.845
					l0.003,0.002c0.85,0.848,1.376,2.02,1.376,3.314V99.509c0-1.337-0.562-2.542-1.46-3.396l-0.031-0.037l-15.843-15.843
					l-0.001-0.004c-0.85-0.846-1.377-2.018-1.377-3.313v-1.37V73.613L142.1,73.613z M115.405,68.47c1.984,0,5.526-0.184,7.242-0.184
					c1.719,0,4.253-0.783,7.69,0.775c3.437,1.558,2.189,4.172,2.189,5.815c0,1.644-0.35,2.716-2.07,2.716
					c-1.719,0-3.881,0.451-5.847-1.791c-0.788-0.901-0.742-4.687-2.404-4.72c-1.321-0.026-0.918,2.393-2.272,4.649
					c-1.345,2.242-3.753,2.208-5.562,2.203c-1.79-0.003-1.695-3.572-1.695-3.572C112.234,69.562,113.653,68.47,115.405,68.47z
					 M109.227,70.881c-0.131-1.301,0.66-2.185,1.387-2.39c0.727-0.206,1.137,1.542,1.137,1.542
					c-0.021,1.072,0.052,3.243,0.027,5.298c-0.01,0.968-0.339,3.557-1.164,4.172c-0.825,0.616-1.353-0.534-1.45-0.944
					c-0.166-0.681,0.174-1.752,0.246-2.86C109.477,74.678,109.359,72.182,109.227,70.881z M110.491,81.102
					c1.256,0.547,1.184,4.5,1.184,4.5c-0.033,0.616,0.227,4.556,0.38,5.549c0.288,1.849-0.239,3.235-1.562,3.03
					c-1.323-0.205-1.542-3.731-1.542-4.826c0-1.097,0.021-2.912-0.275-5.378C108.379,81.512,109.235,80.553,110.491,81.102z
					 M105.136,80.727c0.131-1.643,0.62-7.288,0.422-8.727c-0.196-1.438-0.603-4.415,1.522-3.919c1.759,0.41,1.292,4.313,1.292,4.313
					c-0.287,3.657-0.763,11.795-0.763,13.851c0,2.055,1.836,14.002-0.728,14.002c-2.833,0-2.089-6.754-2.313-10.304
					C104.34,86.364,105.001,82.371,105.136,80.727z M101.742,75.375c0.528-3.218-0.303-6.582,2.23-6.153
					c0.732,0.124,0.56,10.626-1.772,10.626C101.208,79.849,101.213,78.594,101.742,75.375z M98.521,120.113
					c-0.05,1.443-0.363,2.291-0.363,4.072s0.007,3.975-1.777,3.975c-1.785,0-10.446,0-10.446,0s-0.121,2.906-0.687,3.883
					c-0.752,1.295-3.009,2.682-7.802,1.924c-3.676-0.582-4.366-0.338-7.657-1.354c-3.044-0.941-2.253-3.891-1.344-3.717
					c1.363,0.262,1.548,0.719,3.259,1.057c1.926,0.381,6.58,1.791,8.63,1.195c2.048-0.594,2.084-1.721,1.833-2.857
					c-4.759-0.199-7.226-0.322-8.792-0.395c-0.99-0.047-3.593,0.264-3.305-2.027c0.265-0.924,1.521-0.881,2.455-0.75
					c0.937,0.133,3.355,0.436,6.066,0.436c2.009,0,3.576-0.035,3.576-0.035v-2.459c0,0-3.702-0.107-5.045-0.107
					c-0.958,0-3.747-0.379-3.747-2.381c0-1.816,1.127-3.299,2.997-3.299c2.711,0,11.548-0.207,13.536-0.123
					c1.228,0.053,1.965,1.158,1.965,3.336c0,1.385-1.531,2.391-2.081,2.391c-0.551,0-4.186,0.221-4.186,0.221v2.422l7.338-0.133
					c0,0,2.247,0.438,2.247-1.563s0.067-5.563,0.067-5.563s0.264-2.441-1.852-2.441c-2.116,0-14.146,0.182-18.84,0.131
					c-3.516-0.037-4.568,0.643-4.787,4.461c0,0,0.091,1.758,0.181,2.359c0.226,1.498-0.257,1.846-0.752,2.373
					c-0.496,0.529-1.237,0.494-1.866-0.561c-0.833-1.402-0.571-2.803-0.571-4.254c0-1.453-0.441-4.563,1.673-5.684
					c2.115-1.121,4.996-0.936,9.162-0.936c4.165,0,17.055,0,17.055,0s3.704-0.242,3.956,2.422
					C98.85,118.582,98.572,118.611,98.521,120.113z M74.538,106.922c1.018-0.072,2.073,0.475,2.073,1.268
					c0,0.572-0.235,0.836-1.454,0.836c-4.427,0-3.798-0.068-3.924,1.195c-0.074,0.725,1.68,0.371,3.524,0.543
					c1.197,0.113,1.816-0.107,1.948,1.078c0.078,0.699-0.288,1.053-0.288,1.053s-6.567,0.4-7.14,0
					c-0.313-0.219-0.696-0.605-0.696-2.346c0-2.932-0.558-5.174,0.587-6.492c1.146-1.32,2.753-1.191,5.31-1.191
					c2.394,0,2.644,0.441,2.644,1.543c0,1.066-0.49,0.965-4.11,0.881c-1.562-0.039-1.708,0.352-1.708,1.232
					C71.305,107.16,72.408,107.072,74.538,106.922z M78.61,104.166c-0.191-0.896,0.541-1.234,0.994-1.217
					c0.455,0.014,2.168,0.898,2.675,1.07c0.153,0.053,0.662,0.307,1.304,0.639c0.313-0.141,0.551-0.256,0.68-0.332
					c0.531-0.318,3.004-1.654,3.883-1.379c1.039,0.324,0.863,1.305,0.529,1.641c-0.587,0.584-1.995,1.068-2.604,1.383
					c0.729,0.387,1.309,0.697,1.445,0.764c0.409,0.201,1.566,0.857,0.967,1.877c-0.117,0.201-0.427,0.445-0.662,0.547
					c-0.539,0.232-0.972,0.521-1.545,0.768c0.446,0.207,0.896,0.42,1.321,0.635c1.881,0.951,1.406,1.658,1.406,1.658
					c-0.349,1.148-1.955,0.561-2.38,0.359c-0.238-0.115-1.764-0.777-3.14-1.393c-0.839,0.473-1.866,1.047-2.847,1.463
					c-1.269,0.537-1.745,0.465-2.009,0.016c-0.599-1.018,0.559-1.674,0.966-1.877c0.135-0.068,0.716-0.379,1.445-0.766
					c-0.589-0.301-1.826-0.961-2.536-1.322c-0.185-0.092-0.316-0.275-0.396-0.531c0,0-0.475-0.709,1.407-1.658
					c0.424-0.217,0.874-0.43,1.323-0.635C79.896,105.471,78.753,104.83,78.61,104.166z M92.417,108.881
					c-1.219,0-1.89,0.18-1.926-0.375c-0.09-1.371,0-1.803,1.235-1.803c2.138,0,4.107,0.041,4.107-0.58
					c0-0.857-0.722-0.871-1.782-0.871c-3.62,0-3.778,0.164-3.778-0.877c0-1.074-0.026-1.617,2.37-1.617
					c2.555,0,4.525-0.521,5.473,0.918c0.931,1.416,0.422,3.713,0.422,6.57c0,1.697-0.382,2.074-0.693,2.285
					c-0.574,0.391-7.141,0-7.141,0s-0.374-0.086-0.352-0.771c0.032-0.994,0.468-1.211,1.995-1.176
					c1.879,0.047,3.379,0.271,3.379-0.834C95.724,108.916,95.099,108.881,92.417,108.881z M97.668,100.268
					c-1.417-0.111-4.355-4.091-6.921-7.294c-0.891-1.113-4.442-4.192-7.342-4.352c-4.356-0.241-11.204,9.385-12.355,10.247
					c-0.339,0.255-4.522,4.356-2.604-1.306c1.031-3.04,6.356-8.62,8.673-10.247c2.484-1.743,4.033-2.855,4.033-5.536
					c0-2.68,0.188-6.299-0.872-6.414c-1.429-0.157-9.593-1.371-9.3,2.759c0.257,3.645,0.022,4.698-0.074,6.039
					c-0.096,1.341-0.379,2.812-1.875,2.812c-1.529,0-1.3-5.69-1.3-10.19c0-4.501,3.918-4.979,5.838-4.979c0,0,3.023,0,4.028,0
					c2.312,0,3.342-0.139,3.342-1.958c0-1.82,1.456-1.968,2.414-1.968c0.961,0,1.433,0.485,1.433,1.968
					c0,1.483,0.679,1.958,3.459,1.958c2.783,0,3.598-0.063,4.796,0c1.625,0.083,4.606,1.135,4.606,4.596
					c0,4.116,0.466,8.581-2.215,8.367c-2.397-0.19,0.11-8.242-2.233-9.33c-1.721-0.799-6.154-0.796-7.56-0.146
					c-1.34,0.62-0.725,4.489-0.725,6.02c0,1.533-0.062,3.14,3.128,5.181c3.319,2.121,4.866,3.404,7.718,7.007
					C97.887,96.188,100.082,100.457,97.668,100.268z M98.827,57.786H84.794c0-1.938,1.571-3.509,3.51-3.509h0.585h2.922h1.169h3.511
					h0.127h0.455c0.97,0,1.753,0.786,1.753,1.754V57.786z M100.144,85.8c0-3.145,0.661-3.834,1.588-4.657
					c0.924-0.822,1.267,0.068,1.328,0.403c0.398,2.1-0.081,8.273-0.179,10.737c-0.095,2.45,0.546,4.655-0.555,4.884
					c-0.891,0.185-1.423-0.618-1.917-1.301C100.04,95.355,100.144,85.8,100.144,85.8z M113.311,114.502
					c-0.034,1.154-1.067,2.414-1.638,2.963c-0.574,0.547-2.248,0.82-2.689,1.461c-0.438,0.641-0.177,5.484,0.13,5.803
					c0.312,0.32,2.344-0.436,2.954,0.547c0.906,1.455,0.535,3.186-0.221,3.426c-0.771,0.242-3.394,0-5.066,0
					c-1.511,0-3.166,0.311-4.752,0.217c-1.587-0.092-1.33-1.039-1.33-1.861s-0.009-1.727,0.784-2.002
					c0.794-0.273,2.663,0.139,3.545-0.27c0.882-0.414,0.52-2.754,0.476-3.941c-0.045-1.189,0-1.645-1.406-1.645
					c-1.383,0-2.341-1.424-2.431-3.289c-0.065-1.434,0.254-4.313,0.343-5.271c0.09-0.961,0.845-1.975,1.94-1.518
					c1.094,0.455,0.33,2.563,0.318,4.049c-0.011,1.416,0.244,3.072,0.758,3.072c1.19,0,1.156-3.605,1.199-4.244
					c0.044-0.643-0.063-3.078-0.195-4.584c-0.133-1.508,0.75-2.834,1.499-3.016c0.747-0.184,1.349,0.668,1.367,2.049
					c0.021,1.547-0.084,2.908,0.042,4.068c0.122,1.119-0.153,4.465,0.503,4.639c1.087,0.283,1.128-2.098,1.418-2.994
					c0.23-0.717,0.075-2.912-0.058-4.053c-0.127-1.145,0.868-2.34,1.353-2.523c0.484-0.182,1.574,0.381,1.542,1.58
					c-0.036,1.34-0.045,2.938-0.036,4.018C113.671,112.412,113.347,113.264,113.311,114.502z M116.934,122.102
					c0.397,3.336,1.604,6.834,1.921,8.131c0.246,1.006,1.469,3.459-0.57,3.768c-1.49,0.227-2.159-2.148-2.737-3.508
					c-0.458-1.072-0.55-2.162-1.23-4.748c-0.397-1.51-1.007-4.354-0.395-6.773c0.527-2.086,1.1-2.855,1.761-3.951
					c0.662-1.096,2.248-2.795,2.248-4.926c0-2.133-0.178-2.928-0.992-4.051c-0.498-0.686-2.183-2.287-0.463-3.404
					c1.719-1.119,4.064,3.465,4.278,4.191c0.25,0.855,0.944,4.488-1.039,7.504C117.73,117.352,116.577,119.104,116.934,122.102z
					 M123.415,121.303c0.069,1.736,0.61,4.938,1.702,7.402c1.249,2.824,0.684,4.986-0.742,4.986c-1.452,0-2.532-3.215-3.244-6.242
					c-0.692-2.957-1.599-5.326-1.071-8.064c0.529-2.742,3.306-5.756,2.953-9.289c-0.238-2.406-0.345-2.836-0.836-3.914
					c-0.41-0.893-2.248-3.061-0.396-3.93c1.851-0.867,3.945,3.055,4.264,5.48c0.322,2.455-0.086,5.313-0.938,7.605
					C124.141,117.926,123.317,118.807,123.415,121.303z M132.207,132.721c-1.054,1.135-2.556,0.73-3.351-1.096
					c-0.792-1.828-4.673-10.006-1.41-15.121c0,0,1.709-2.512,1.633-5.709c-0.106-4.455-2.866-5.848-2.16-7.082
					c0.704-1.232,1.719-1.645,3.216,0c1.499,1.645,2.689,3.988,2.165,8.297c-0.523,4.322-2.851,5.355-2.851,9.719
					c0,3.916,1.438,5.506,1.685,6.811C131.388,129.877,133.125,131.732,132.207,132.721z M132.891,97.783
					c0,0-0.263,0.924-1.354,0.924c-1.089,0-1.19-1.711-1.19-2.567s-0.346-6.38-2.429-7.373c-2.081-0.992-3.869-0.992-3.869-0.992
					l0.054,9.425c0,0-0.183,2.965-1.82,2.741c-1.56-0.214-1.776-1.132-1.776-2.741s0-9.354,0-9.354s-3.471-0.213-4.253,3.191
					c-0.724,3.167-1.144,6.063-1.252,6.764c-0.108,0.708-0.707,2.613-2.018,1.928c-0.79-0.412-0.949-4.205-0.386-6.225
					c0.562-2.02,1.021-5.985,1.594-6.739c1.058-1.394,4.575-2.285,5.548-2.598c0.627-0.204,0.853-1.425,0.386-1.599
					c-0.587-0.22-2.889,0.055-4.253,0.014c-1.396-0.041-2.677,0.797-3.085-0.56c-0.474-1.575,0.221-2.099,2.379-2.099h2.866
					c0,0,2.374,0.092,2.374-0.662c0-0.753,0.141-1.645,1.572-1.645c1.632,0,1.69,0.692,1.69,1.308c0,0.612,0,0.612,0.544,0.767
					c0.742,0.208,6.289-0.091,6.289-0.091s1.478,0.21,1.478,1.351c0,1.05-0.242,1.393-1.994,1.393c-1.754,0-6.262-0.002-6.262-0.002
					s-0.288,0.836,0.108,1.316c0.396,0.479,1.077,0.75,2.318,0.98c1.664,0.309,5.184,0.979,5.967,4.147
					C132.898,91.951,133.256,97.097,132.891,97.783z"/>
			</g>
		</g>
	</g>
</g>
</svg>
